:version 1.10
:name ASF
:units
  mass 1
  length 1
  angle deg
:documentation
  ASF file generated by Kaydara
:root
  axis xyz
  order  tx ty tz rx ry rz
  position 0 0 0
  orientation 0 0 0
:bonedata
  begin
    id 1
    name RightUpLegDummy
    direction -1 2.30186e-007 8.31532e-007
    length 4.04083
    axis 0 0 0 xyz
  end
  begin
    id 2
    name RightUpLeg
    direction -0.000919234 -0.999985 0.00544864
    length 17.4221
    axis -3.80308 -0.00076134 -0.0523649 xyz
    dof rx ry rz
  end
  begin
    id 3
    name RightLeg
    direction -0.000919271 -0.999984 -0.00555045
    length 17.1239
    axis 4.00314 0.0181274 -0.183583 xyz
    dof rx ry rz
  end
  begin
    id 4
    name RightFoot
    direction -2.57843e-005 -4.04509e-007 1
    length 6.72091
    axis 8.18909e-005 -0.122003 -0.403008 xyz
    dof rx ry rz
  end
  begin
    id 5
    name RightToes
    direction 0.00116825 -0.014069 0.9999
    length 3.85082
    axis 0.000514414 0.540638 -0.356797 xyz
    dof rx ry rz
  end
  begin
    id 6
    name SpineDummy
    direction 0.0168869 0.966876 -0.254689
    length 6.99894
    axis 0 0 0 xyz
  end
  begin
    id 7
    name Spine
    direction -0.0132008 0.999903 0.00446247
    length 11.1999
    axis -0.00148109 0.00725429 0.756411 xyz
    dof rx ry rz
  end
  begin
    id 8
    name Spine1
    direction 0 0 0
    length 0
    axis -0.000934958 0.0245693 1.46543 xyz
    dof rx ry rz
  end
  begin
    id 9
    name HEadDummy
    direction -0.0255732 0.999672 0.00128215
    length 3.43865
    axis -0.000934958 0.0245693 1.46543 xyz
  end
  begin
    id 10
    name HEad
    direction -0.0472656 0.980052 0.19304
    length 5.12695
    axis -0.000934954 0.0245693 1.46543 xyz
    dof rx ry rz
  end
  begin
    id 11
    name LeftShoulder1Dummy
    direction 0.953098 0.301717 -0.023914
    length 3.68488
    axis -0.000934958 0.0245693 1.46543 xyz
  end
  begin
    id 12
    name LeftShoulder1
    direction 0.962466 0.271167 0.0112566
    length 3.13809
    axis -0.000934958 0.0245693 1.46543 xyz
    dof rx ry rz
  end
  begin
    id 13
    name LeftArm
    direction 0.999943 0.00455037 -0.00961766
    length 11.3419
    axis -23.1648 0.685459 1.22814 xyz
    dof rx ry rz
  end
  begin
    id 14
    name LeftForeArm
    direction 0.999332 0.0131969 0.0340885
    length 8.70632
    axis -9.90633 0.618216 0.0826942 xyz
    dof rx ry rz
  end
  begin
    id 15
    name LeftHand
    direction 0.994373 -0.0366703 0.0993905
    length 5.32135
    axis 0.00675269 0.680415 0.445699 xyz
    dof rx ry rz
  end
  begin
    id 16
    name RightShoulderDummy
    direction -0.967298 0.252589 -0.0230903
    length 3.68488
    axis -0.000934958 0.0245693 1.46543 xyz
  end
  begin
    id 17
    name RightShoulder
    direction -0.975062 0.221602 0.0120823
    length 3.13809
    axis 0.216257 0.0246515 1.45863 xyz
    dof rx ry rz
  end
  begin
    id 18
    name RightArm
    direction -0.99886 -0.00851186 -0.0469687
    length 10.3947
    axis -23.196 0.23503 -0.532632 xyz
    dof rx ry rz
  end
  begin
    id 19
    name RightForeArm
    direction -0.99909 0.00114866 0.0426317
    length 8.68355
    axis -9.91764 -0.134943 0.610517 xyz
    dof rx ry rz
  end
  begin
    id 20
    name RightHand
    direction -0.992888 -0.0489538 0.10852
    length 5.28593
    axis -0.00275396 -0.197403 0.246414 xyz
    dof rx ry rz
  end
  begin
    id 21
    name LeftUpLegDummy
    direction 1 -2.30186e-007 -8.31532e-007
    length 4.04083
    axis 0 0 0 xyz
  end
  begin
    id 22
    name LeftUpLeg
    direction -0.000920097 -1 2.79241e-006
    length 17.4221
    axis -3.48782 0.00143434 -0.0532288 xyz
    dof rx ry rz
  end
  begin
    id 23
    name LeftLeg
    direction -0.000920097 -1 2.7912e-006
    length 17.1239
    axis 3.68162 -0.00806512 -0.0529896 xyz
    dof rx ry rz
  end
  begin
    id 24
    name LeftFoot
    direction -2.57845e-005 -3.987e-007 1
    length 6.72091
    axis 3.02372e-005 -0.00147829 -0.214229 xyz
    dof rx ry rz
  end
  begin
    id 25
    name LeftToes
    direction 0.00813577 -0.00488255 0.999955
    length 3.85048
    axis 3.89895e-005 -0.0014783 -0.214229 xyz
    dof rx ry rz
  end
:hierarchy
  begin
    root RightUpLegDummy SpineDummy LeftUpLegDummy
    RightUpLegDummy RightUpLeg
    RightUpLeg RightLeg
    RightLeg RightFoot
    RightFoot RightToes
    SpineDummy Spine
    Spine Spine1
    Spine1 HEadDummy LeftShoulder1Dummy RightShoulderDummy
    HEadDummy HEad
    LeftShoulder1Dummy LeftShoulder1
    LeftShoulder1 LeftArm
    LeftArm LeftForeArm
    LeftForeArm LeftHand
    RightShoulderDummy RightShoulder
    RightShoulder RightArm
    RightArm RightForeArm
    RightForeArm RightHand
    LeftUpLegDummy LeftUpLeg
    LeftUpLeg LeftLeg
    LeftLeg LeftFoot
    LeftFoot LeftToes
  end

:SAMPLES-PER-SECOND 30
:FULLY-SPECIFIED
:DEGREES
114
root  -34.8476 35.0215 3.93495 -173.532 67.098 -179.926
RightUpLeg  -5.40669 -11.4496 -0.00906866
RightLeg  5.04233 -2.43644 -0.0565814
RightFoot  4.83661 0.0269845 -0.0319526
RightToes  -22.7169 -0.0972191 -0.198456
Spine  -2.70386 0.0203182 0.308064
Spine1  -5.2888 0.219558 1.34271
HEad  -58.0337 -2.81691 7.31562
LeftShoulder1  -1.94126e-019 -3.10601e-018 -2.51263e-017
LeftArm  -26.3432 23.698 -84.0112
LeftForeArm  19.6487 -73.4499 -41.6277
LeftHand  -0.0475617 4.72295 4.57399
RightShoulder  -4.96962e-017 0 -2.36833e-017
RightArm  -22.3225 -20.5153 75.9304
RightForeArm  25.3586 72.6885 37.2872
RightHand  -0.00727856 -9.15479 -1.25932
LeftUpLeg  -4.70773 5.70437 -0.948284
LeftLeg  6.42627 17.6902 0.833668
LeftFoot  3.63515 -0.0311876 1.32736
LeftToes  -15.3559 1.89912e-006 4.45198e-008
115
root  -34.7903 35.0212 3.98592 -173.61 66.9884 -179.928
RightUpLeg  -5.18372 -11.5772 0.0799189
RightLeg  4.89 -2.43422 -0.0500717
RightFoot  4.78797 0.0274878 -0.0328607
RightToes  -22.5672 -0.0965693 -0.197648
Spine  -2.72277 0.00385149 0.345598
Spine1  -5.31814 0.193825 1.41797
HEad  -57.9063 -2.65548 7.37864
LeftShoulder1  -1.94126e-019 -3.10601e-018 -2.51263e-017
LeftArm  -25.6381 23.7595 -83.9439
LeftForeArm  24.3642 -74.8457 -46.8662
LeftHand  -0.0261718 5.33192 5.12256
RightShoulder  -4.96962e-017 0 -2.36833e-017
RightArm  -21.7676 -20.8598 75.7841
RightForeArm  28.7822 73.9696 41.1455
RightHand  0.0051247 -9.58392 -1.52351
LeftUpLeg  -4.63166 5.57398 -0.819368
LeftLeg  6.51823 17.7099 0.86259
LeftFoot  3.64673 -0.0305056 1.33326
LeftToes  -15.4446 1.89912e-006 4.45198e-008
116
root  -34.7363 35.0201 4.03658 -173.661 66.8382 -179.887
RightUpLeg  -4.91498 -11.7813 0.175874
RightLeg  4.67401 -2.37179 -0.0398476
RightFoot  4.77592 0.0279214 -0.0325114
RightToes  -22.5238 -0.0959653 -0.196914
Spine  -2.72596 -0.0364169 0.382337
Spine1  -5.31998 0.119283 1.49237
HEad  -58.0314 -2.44735 7.47391
LeftShoulder1  -1.94126e-019 -3.10601e-018 -2.51263e-017
LeftArm  -25.2365 23.8395 -83.9502
LeftForeArm  27.4922 -75.673 -50.9179
LeftHand  0.00400952 6.01112 5.63908
RightShoulder  -4.96962e-017 0 -2.36833e-017
RightArm  -21.2204 -21.1761 75.628
RightForeArm  30.8243 74.651 43.6075
RightHand  0.0113801 -9.96093 -1.60271
LeftUpLeg  -4.61343 5.44804 -0.67196
LeftLeg  6.73126 17.6795 0.925979
LeftFoot  3.6266 -0.0290128 1.32555
LeftToes  -15.6703 1.89912e-006 4.45198e-008
117
root  -34.6776 35.0186 4.09021 -173.662 66.8068 -179.766
RightUpLeg  -4.63298 -11.8068 0.306797
RightLeg  4.46262 -2.37472 -0.0311618
RightFoot  4.75389 0.0282202 -0.0300139
RightToes  -22.334 -0.0954056 -0.196252
Spine  -2.70615 -0.0432994 0.414683
Spine1  -5.27812 0.1097 1.5558
HEad  -58.3795 -2.21795 7.57583
LeftShoulder1  -1.94126e-019 -3.10601e-018 -2.51263e-017
LeftArm  -25.118 23.9571 -84.0173
LeftForeArm  29.4416 -76.174 -53.961
LeftHand  0.0276762 6.45921 6.01404
RightShoulder  -4.96962e-017 0 -2.36833e-017
RightArm  -20.8532 -21.4916 75.5354
RightForeArm  32.2012 75.0586 45.2376
RightHand  0.0158461 -10.616 -1.5772
LeftUpLeg  -4.58774 5.6156 -0.47968
LeftLeg  7.0119 17.4734 0.999978
LeftFoot  3.5544 -0.0257518 1.28934
LeftToes  -15.9228 1.89912e-006 4.45198e-008
118
root  -34.6286 35.0175 4.13986 -173.669 66.8279 -179.725
RightUpLeg  -4.46397 -11.8779 0.403329
RightLeg  4.29397 -2.27902 -0.0231869
RightFoot  4.74927 0.0281767 -0.0224447
RightToes  -22.3677 -0.0948885 -0.195657
Spine  -2.69934 -0.0456368 0.435107
Spine1  -5.26039 0.108525 1.59523
HEad  -58.7941 -2.27753 7.64813
LeftShoulder1  -1.94126e-019 -3.10601e-018 -2.51263e-017
LeftArm  -25.3318 24.0708 -84.063
LeftForeArm  29.4765 -76.4975 -56.8453
LeftHand  0.0689195 7.24198 6.25231
RightShoulder  -4.96962e-017 0 -2.36833e-017
RightArm  -20.6902 -21.7271 75.5304
RightForeArm  30.476 75.1533 46.3183
RightHand  0.0218802 -11.5808 -1.53925
LeftUpLeg  -4.60099 5.7001 -0.347393
LeftLeg  7.22524 17.401 1.05994
LeftFoot  3.52278 -0.0239745 1.27516
LeftToes  -16.1336 1.89912e-006 4.45198e-008
119
root  -34.5844 35.0168 4.19171 -173.694 66.871 -179.747
RightUpLeg  -4.32983 -11.9613 0.486508
RightLeg  4.0947 -2.15078 -0.0143838
RightFoot  4.74764 0.0279802 -0.0125469
RightToes  -22.2957 -0.0944127 -0.195128
Spine  -2.70911 -0.0556619 0.435224
Spine1  -5.2748 0.0909384 1.59547
HEad  -59.4857 -3.50324 7.2998
LeftShoulder1  -1.94126e-019 -3.10601e-018 -2.51263e-017
LeftArm  -25.3122 24.3058 -83.9291
LeftForeArm  32.522 -77.1838 -63.3924
LeftHand  0.100601 7.65677 6.78122
RightShoulder  -4.96962e-017 0 -2.36833e-017
RightArm  -21.2794 -21.6759 75.7315
RightForeArm  24.0287 74.9467 47.2153
RightHand  -0.045202 -12.0769 -0.353191
LeftUpLeg  -4.60831 5.85435 -0.241375
LeftLeg  7.31748 17.2733 1.07987
LeftFoot  3.54109 -0.0230308 1.27288
LeftToes  -16.2824 1.89912e-006 4.45198e-008
120
root  -34.5487 35.0169 4.24956 -173.693 66.914 -179.734
RightUpLeg  -4.17475 -11.9301 0.589474
RightLeg  3.83621 -2.12447 -0.00465205
RightFoot  4.79522 0.0284384 -0.0119042
RightToes  -22.2539 -0.0939766 -0.194661
Spine  -2.71518 -0.0540289 0.44353
Spine1  -5.27839 0.10258 1.61011
HEad  -60.0949 -6.22693 5.41931
LeftShoulder1  -1.94126e-019 -3.10601e-018 -2.51263e-017
LeftArm  -23.4924 24.4679 -83.1288
LeftForeArm  48.9117 -78.3252 -77.4124
LeftHand  0.0446947 6.58317 6.97731
RightShoulder  -4.96962e-017 0 -2.36833e-017
RightArm  -22.7825 -21.3039 76.1694
RightForeArm  16.2652 74.8127 48.7111
RightHand  -0.187539 -11.1624 2.43497
LeftUpLeg  -4.582 5.91282 -0.123196
LeftLeg  7.33503 17.2506 1.08372
LeftFoot  3.59924 -0.0234385 1.29054
LeftToes  -16.5592 1.89912e-006 4.45198e-008
